<?xml version="1.0" encoding="utf-8"?>
<!-- Generator: Adobe Illustrator 16.0.0, SVG Export Plug-In . SVG Version: 6.00 Build 0)  -->
<!DOCTYPE svg PUBLIC "-//W3C//DTD SVG 1.1//EN" "http://www.w3.org/Graphics/SVG/1.1/DTD/svg11.dtd">
<svg version="1.1" id="Layer_1" xmlns="http://www.w3.org/2000/svg" xmlns:xlink="http://www.w3.org/1999/xlink" x="0px" y="0px"
	 width="170px" height="169.713px" viewBox="0 0 170 169.713" enable-background="new 0 0 170 169.713" xml:space="preserve">
<path opacity="0.8" fill="#303030" d="M158.535,140.244c-6.494-3.567-13.327-7.052-19.749-10.552
	c11.044-10.864,21.2-28.174,20.86-44.737c-0.436-19.099-9.563-29.624-18.59-41.568c5.422-6.891,10.856-14.334,16.215-20.828
	c1.308-1.433,1.516-3.329,0.506-4.458c-0.701-0.777-1.828-1.048-2.92-0.608c-0.567,0.178-1.1,0.539-1.523,1.044
	c-5.271,6.366-10.525,13.753-15.732,20.617C126.902,25.73,106.159,9.437,84.891,9.998c-20.973,0.73-31.531,11.069-44.983,21.54
	c-6.613-4.156-13.595-8.261-19.96-12.344c-0.898-0.6-1.999-0.86-3.033-0.71c-1.866,0.24-3.109,1.748-2.694,3.325
	c0.192,0.695,0.701,1.32,1.455,1.76c6.45,3.924,13.457,7.806,20.065,11.722C23.16,46.131,9.521,65.571,10.014,84.83
	c0.383,18.392,9.063,28.87,17.601,40.188c-3.827,4.842-7.658,9.918-11.458,14.801c-1.254,1.625-1.356,3.617-0.279,4.621
	c1.08,1.019,2.931,0.687,4.138-0.894c3.667-4.743,7.334-9.718,10.987-14.481c10.625,13.656,31.748,31.221,53.892,30.65
	c23.394-1.216,33.977-12.994,49.684-25.85c6.187,3.636,12.726,7.252,18.86,10.896c1.711,1.037,4.121,0.883,5.569-0.395
	C160.461,143.106,160.333,141.231,158.535,140.244z M87.82,18.734c18.525,0.418,35.979,13.651,45.513,25.971
	c-0.782,0.985-1.549,1.954-2.319,2.907c-8.854-11.839-24.816-23.891-41.992-24.708c-16.913-0.74-28.25,6.118-39.847,14.667
	c-1.044-0.712-2.11-1.425-3.183-2.133C58.248,26.259,69.552,18.411,87.82,18.734z M32.173,119.362
	c-7.369-10.649-13.799-21.407-13.341-37.458c0.401-16.921,11.65-33.306,23.001-42.933c1.093,0.673,2.166,1.35,3.226,2.031
	C34.545,49.92,24.627,64.557,23.815,79.97c-0.458,8.119,1.01,14.982,3.516,21.228c-0.565-13.36,3.599-26.483,12.143-37.282
	c7.562-9.557,18.397-15.6,30.5-17.013c12.104-1.419,24.033,1.977,33.594,9.542c15.947,12.621,18.664,35.861,6.037,51.809
	c-5.896,7.447-14.635,11.336-23.476,11.336c-6.491,0-13.031-2.104-18.517-6.438c-10.501-8.313-12.285-23.625-3.972-34.125
	c6.777-8.571,19.271-10.029,27.839-3.248c3.402,2.69,5.556,6.548,6.051,10.856c0.506,4.307-0.701,8.551-3.391,11.954
	c-2.219,2.804-5.399,4.578-8.944,4.985c-3.542,0.406-7.044-0.584-9.846-2.801c-2.322-1.828-3.788-4.461-4.131-7.398
	c-0.339-2.941,0.486-5.838,2.321-8.164l3.003,2.375c-1.201,1.523-1.742,3.421-1.517,5.346c0.225,1.924,1.184,3.639,2.702,4.848
	c2,1.578,4.495,2.287,7.022,1.992c2.531-0.297,4.806-1.56,6.381-3.563c2.062-2.597,2.984-5.841,2.589-9.129
	c-0.377-3.29-2.021-6.237-4.613-8.292c-6.919-5.466-16.991-4.296-22.462,2.615c-7,8.85-5.496,21.743,3.353,28.741
	c11.264,8.912,27.686,7.006,36.604-4.263c11.307-14.291,8.885-35.116-5.416-46.426c-8.748-6.927-19.669-10.022-30.77-8.741
	c-11.085,1.297-21.008,6.828-27.931,15.585c-10.257,12.96-13.777,29.517-9.765,45.534c0.809,1.322,1.649,2.627,2.51,3.921
	C34.211,116.931,33.196,118.14,32.173,119.362z M81.966,150.899c-19.315-0.446-37.147-14.711-46.624-27.377
	c0.983-1.231,1.962-2.428,2.939-3.608c8.759,11.878,24.603,24.267,42.069,25.261c16.589,0.893,28.363-5.389,40.748-14.576
	c1.172-0.912,2.276-1.89,3.412-2.896c1.293,0.84,2.611,1.667,3.961,2.493C114.418,141.735,102.535,150.983,81.966,150.899z
	 M132.559,126.228c-1.352-0.771-2.668-1.545-3.961-2.326c9.338-9.043,16.618-22.188,17.368-35.178
	c0.884-15.22-4.688-26.127-11.807-36.823c0.813-0.965,1.626-1.942,2.454-2.941c7.884,11.199,14.709,22.172,14.259,38.898
	C150.447,102.263,142.182,116.69,132.559,126.228z"/>
</svg>
