<?xml version="1.0" encoding="utf-8"?>
<!-- Generator: Adobe Illustrator 16.0.0, SVG Export Plug-In . SVG Version: 6.00 Build 0)  -->
<!DOCTYPE svg PUBLIC "-//W3C//DTD SVG 1.1//EN" "http://www.w3.org/Graphics/SVG/1.1/DTD/svg11.dtd">
<svg version="1.1" id="Layer_1" xmlns="http://www.w3.org/2000/svg" xmlns:xlink="http://www.w3.org/1999/xlink" x="0px" y="0px"
	 width="768px" height="768px" viewBox="0 0 768 1280" enable-background="new 0 0 768 1280" xml:space="preserve">
<g>
	<g id="Your_Icon">
		<g id="Layer_x0020_1_3_">
			<path fill="#ED1C24" d="M126.071,466.34v109.172v481.712c0,31.111,19.658,57.914,47.392,69.146v15.916
				c0,22.229,18.563,40.414,41.28,40.414h68.358c0.587-8.229,7.443-14.72,15.816-14.72s15.25,6.491,15.837,14.72h138.49
				c0.587-8.229,7.466-14.72,15.839-14.72s15.229,6.491,15.815,14.72h68.359c22.716,0,41.277-18.196,41.277-40.414v-15.916
				c27.734-11.231,47.394-38.045,47.394-69.146V575.523V466.34c0-63.275-38.786-109.294-95.096-137.969V136.817H560.7
				c10.876,0,19.771-8.893,19.771-19.758c0-10.866-8.906-19.76-19.793-19.76H207.3c-10.877,0-19.771,8.894-19.771,19.76
				c0,10.865,8.894,19.758,19.771,19.758h13.866v191.221C164.857,356.658,126.071,402.732,126.071,466.34L126.071,466.34z
				 M535.115,136.817v185.95c-29.595-13.303-63.297-22.185-98.362-26.616V136.817H535.115z M331.202,136.817v159.202
				c-35.043,4.364-68.746,13.158-98.34,26.426V136.817H331.202L331.202,136.817z"/>
		</g>
	</g>
	<g>
		<path fill="#FFFFFF" d="M431.919,696.565c107.833-174.737-75.488-250.081-75.488-250.081
			c47.151,39.322,63.601,173.098-22.746,174.869c-61.254,1.257-50.626-64.431-44.039-78.285
			c-6.897,9.771-53.292,91.913-34.013,174.763c19.28,82.854,135.831,115.685,135.831,115.685
			C367.352,761.283,413.455,726.23,431.919,696.565z"/>
		<path fill="#FFFFFF" d="M480.301,593.928c9.553,17.761-10.065,92.095-38.714,125.939c-53.124,62.913-36.37,94.816-32.226,109.659
			c0.656-1.549,7.549-8.764,56.539-42.332C571.815,714.807,480.301,593.928,480.301,593.928z"/>
		<path fill="#FFFFFF" d="M409.488,829.95c-0.035-0.137-0.084-0.28-0.122-0.424C409.177,829.962,409.488,829.95,409.488,829.95z"/>
		<path fill="#FFFFFF" d="M289.646,543.068c0.567-0.81,0.919-1.272,0.919-1.272C290.176,542.095,289.892,542.531,289.646,543.068z"
			/>
	</g>
</g>
</svg>
